<svg xmlns="http://www.w3.org/2000/svg" width="161.714" height="30" viewBox="0 0 161.714 30"><defs><style>.a{fill-rule:evenodd;}</style></defs><g transform="translate(-20 -19)"><g transform="translate(20 19)"><path class="a" d="M18.409,0a8.869,8.869,0,0,1,8.176,12.282H39.5l-2.515-6.8H31.537V0h9.228L45.31,12.281h4.713v5.437h-2.7L51.867,30H46.059L41.527,17.755H26.6A8.869,8.869,0,0,1,18.556,30H2.737V22.091h5.4v2.454h10.27a3.409,3.409,0,0,0,.056-6.818h-.056L0,17.736V12.282l18.409-.009a3.409,3.409,0,0,0,.056-6.818H8.126l-.006,2.7h-5.4L2.737,0Z"/><g transform="translate(67.393)"><path d="M5.61,11.65c2.247,0,3.948-1.394,3.948-3.235A2.98,2.98,0,0,0,7.692,5.652h0A2.865,2.865,0,0,0,9.23,3.2C9.23,1.52,7.656.291,5.5.291H0V11.65ZM4.917,4.66H3.2V2.718H4.917c.71,0,1.148.392,1.148.971S5.627,4.66,4.917,4.66Zm.1,4.369H3.2V6.942H5.015a1.053,1.053,0,1,1,0,2.087ZM25.181,11.65V8.936h-5.3v-1.7h4.7V4.669h-4.7V3h5.149V.291H16.545V11.65Zm12.853.243a5.97,5.97,0,0,0,6.215-5H40.806a2.77,2.77,0,0,1-2.764,2.077,2.915,2.915,0,0,1-3-3.016,2.932,2.932,0,0,1,3-3.042A2.871,2.871,0,0,1,40.8,4.829h3.411A5.951,5.951,0,0,0,38.035,0c-3.719,0-6.5,2.551-6.5,5.956C31.537,9.342,34.315,11.893,38.035,11.893ZM54.54,11.65V6.632l3.49,5.019h3.978l-4.26-5.857,3.9-5.5H57.756L54.54,5.079V.291H51.188V11.65Zm22.314,0V8.936h-5.3v-1.7h4.7V4.669h-4.7V3h5.149V.291H68.218V11.65Zm10.5,0V8.175h1.221l1.984,3.476h3.76L91.893,7.519a3.594,3.594,0,0,0,1.941-3.208c0-2.375-1.911-4.02-4.547-4.02h-5.3V11.65Zm1.51-6.165H87.334V3.058h1.531c.937,0,1.477.511,1.477,1.21S89.8,5.485,88.866,5.485Z"/><path d="M.751,40.542l1.216-2.529H7.514l1.229,2.529h.751L5.1,31.555H4.4L0,40.542Zm6.456-3.065H2.218l2.488-5.155Zm13.93,3.065v-.591H15.6v-8.4h-.7v8.987Zm11.712,0v-.591H27.313v-8.4h-.7v8.987Zm6.168,0V31.555h-.693v8.987Zm6.226,0,1.216-2.529h5.546l1.23,2.529h.751l-4.4-8.987h-.7l-4.4,8.987ZM51.7,37.477H46.71L49.2,32.321Zm8.387,3.065V32.736l6.5,7.806h.572V31.555H66.46v7.806l-6.482-7.806h-.586v8.987Zm18.209.07a5.552,5.552,0,0,0,1.911-.321,4.038,4.038,0,0,0,1.5-.938h0l-.438-.424a4.164,4.164,0,0,1-2.946,1.08,4.671,4.671,0,0,1-2.192-.514,3.9,3.9,0,0,1-1.548-1.42,3.929,3.929,0,0,1,0-4.049,3.9,3.9,0,0,1,1.548-1.42,4.671,4.671,0,0,1,2.192-.514,4.163,4.163,0,0,1,2.946,1.067h0l.438-.424a3.98,3.98,0,0,0-1.494-.932,5.638,5.638,0,0,0-1.918-.315,5.4,5.4,0,0,0-2.542.591,4.533,4.533,0,0,0-1.781,1.632,4.53,4.53,0,0,0,0,4.679,4.533,4.533,0,0,0,1.781,1.632A5.4,5.4,0,0,0,78.3,40.612Zm16.025-.07v-.591H88.432V36.267h5.084v-.578H88.432V32.146h5.684v-.591H87.737v8.987Z" transform="translate(0 -11.388)"/></g></g></g></svg>